<svg width="42" height="42" viewBox="0 0 42 42" fill="none" xmlns="http://www.w3.org/2000/svg">
<path fill-rule="evenodd" clip-rule="evenodd" d="M28 15.75C28 17.6065 27.2625 19.387 25.9497 20.6997C24.637 22.0125 22.8565 22.75 21 22.75C19.1435 22.75 17.363 22.0125 16.0503 20.6997C14.7375 19.387 14 17.6065 14 15.75C14 13.8935 14.7375 12.113 16.0503 10.8003C17.363 9.4875 19.1435 8.75 21 8.75C22.8565 8.75 24.637 9.4875 25.9497 10.8003C27.2625 12.113 28 13.8935 28 15.75ZM24.5 15.75C24.5 16.6783 24.1313 17.5685 23.4749 18.2249C22.8185 18.8813 21.9283 19.25 21 19.25C20.0717 19.25 19.1815 18.8813 18.5251 18.2249C17.8687 17.5685 17.5 16.6783 17.5 15.75C17.5 14.8217 17.8687 13.9315 18.5251 13.2751C19.1815 12.6187 20.0717 12.25 21 12.25C21.9283 12.25 22.8185 12.6187 23.4749 13.2751C24.1313 13.9315 24.5 14.8217 24.5 15.75Z" fill="#0BA11A"/>
<path fill-rule="evenodd" clip-rule="evenodd" d="M21 1.75C10.3688 1.75 1.75 10.3688 1.75 21C1.75 31.6313 10.3688 40.25 21 40.25C31.6313 40.25 40.25 31.6313 40.25 21C40.25 10.3688 31.6313 1.75 21 1.75ZM5.25 21C5.25 24.6575 6.49775 28.0245 8.589 30.6985C10.0577 28.7698 11.9523 27.2068 14.125 26.1315C16.2977 25.0563 18.6896 24.4979 21.1137 24.5C23.5066 24.4977 25.8684 25.0417 28.0191 26.0904C30.1699 27.1391 32.0529 28.6649 33.5247 30.5515C35.041 28.5628 36.062 26.2416 36.5031 23.78C36.9442 21.3184 36.7928 18.7872 36.0614 16.3957C35.33 14.0043 34.0396 11.8213 32.2971 10.0276C30.5546 8.2338 28.4099 6.88075 26.0407 6.08039C23.6714 5.28003 21.1456 5.05535 18.6723 5.42495C16.1989 5.79456 13.8491 6.74781 11.8173 8.20584C9.78556 9.66388 8.13017 11.5848 6.98815 13.8096C5.84613 16.0344 5.25032 18.4992 5.25 21ZM21 36.75C17.3844 36.7554 13.878 35.5116 11.074 33.229C12.2026 31.6133 13.7048 30.2941 15.4528 29.3837C17.2008 28.4733 19.1429 27.9986 21.1137 28C23.06 27.9984 24.9786 28.4613 26.7101 29.35C28.4416 30.2387 29.9361 31.5278 31.0695 33.11C28.2438 35.4667 24.6795 36.7552 21 36.75Z" fill="#0BA11A"/>
</svg>
