<svg width="42" height="42" viewBox="0 0 42 42" fill="none" xmlns="http://www.w3.org/2000/svg">
<path d="M21 10.5C19.1748 10.5023 17.4251 11.2284 16.1345 12.519C14.8439 13.8096 14.1178 15.5593 14.1155 17.3845H17.6155C17.6155 15.5173 19.1345 14 21 14C22.8655 14 24.3845 15.5173 24.3845 17.3845C24.3845 18.431 23.5427 19.1905 22.2565 20.23C21.8363 20.5592 21.4327 20.909 21.0472 21.2783C19.3007 23.023 19.25 24.8763 19.25 25.0828V26.25H22.75L22.7482 25.1422C22.75 25.1142 22.806 24.4668 23.52 23.7545C23.7825 23.492 24.1132 23.2295 24.4562 22.953C25.8195 21.8488 27.8827 20.181 27.8827 17.3845C27.8813 15.5593 27.1558 13.8093 25.8654 12.5186C24.575 11.2278 22.8251 10.5019 21 10.5ZM19.25 28H22.75V31.5H19.25V28Z" fill="#2AAC37"/>
<path d="M21 3.5C11.3505 3.5 3.5 11.3505 3.5 21C3.5 30.6495 11.3505 38.5 21 38.5C30.6495 38.5 38.5 30.6495 38.5 21C38.5 11.3505 30.6495 3.5 21 3.5ZM21 35C13.2808 35 7 28.7192 7 21C7 13.2808 13.2808 7 21 7C28.7192 7 35 13.2808 35 21C35 28.7192 28.7192 35 21 35Z" fill="#2AAC37"/>
</svg>
