<svg width="42" height="45" viewBox="0 0 42 45" fill="none" xmlns="http://www.w3.org/2000/svg">
<circle cx="21" cy="24" r="21" fill="#0BA11A"/>
<circle cx="21" cy="24" r="18" fill="white"/>
<path fill-rule="evenodd" clip-rule="evenodd" d="M27.6944 14.4118C27.6944 13.2417 27.2555 12.1195 26.4741 11.2922C25.6927 10.4648 24.6328 10 23.5278 10H17.9722C16.8672 10 15.8073 10.4648 15.0259 11.2922C14.2445 12.1195 13.8056 13.2417 13.8056 14.4118H12.4167C11.3116 14.4118 10.2518 14.8766 9.47039 15.7039C8.68899 16.5313 8.25 17.6535 8.25 18.8235V30.5882C8.25 31.7583 8.68899 32.8805 9.47039 33.7078C10.2518 34.5352 11.3116 35 12.4167 35H29.0833C30.1884 35 31.2482 34.5352 32.0296 33.7078C32.811 32.8805 33.25 31.7583 33.25 30.5882V18.8235C33.25 17.6535 32.811 16.5313 32.0296 15.7039C31.2482 14.8766 30.1884 14.4118 29.0833 14.4118H27.6944ZM23.5278 12.9412H17.9722C17.6039 12.9412 17.2506 13.0961 16.9901 13.3719C16.7297 13.6477 16.5833 14.0217 16.5833 14.4118H24.9167C24.9167 14.0217 24.7703 13.6477 24.5099 13.3719C24.2494 13.0961 23.8961 12.9412 23.5278 12.9412ZM12.4167 17.3529H29.0833C29.4517 17.3529 29.805 17.5079 30.0654 17.7837C30.3259 18.0595 30.4722 18.4335 30.4722 18.8235V30.5882C30.4722 30.9783 30.3259 31.3523 30.0654 31.6281C29.805 31.9039 29.4517 32.0588 29.0833 32.0588H12.4167C12.0483 32.0588 11.695 31.9039 11.4346 31.6281C11.1741 31.3523 11.0278 30.9783 11.0278 30.5882V18.8235C11.0278 18.4335 11.1741 18.0595 11.4346 17.7837C11.695 17.5079 12.0483 17.3529 12.4167 17.3529Z" fill="#0BA11A"/>
</svg>
