<svg width="42" height="43" viewBox="0 0 42 43" fill="none" xmlns="http://www.w3.org/2000/svg">
<circle cx="21" cy="21" r="21" fill="#0BA11A"/>
<circle cx="21" cy="22" r="21" fill="#0BA11A"/>
<circle cx="21" cy="21" r="18" fill="white"/>
<path d="M25.375 24.5C25.1429 24.5 24.9204 24.5922 24.7563 24.7563C24.5922 24.9204 24.5 25.1429 24.5 25.375C24.5 25.6071 24.5922 25.8296 24.7563 25.9937C24.9204 26.1578 25.1429 26.25 25.375 26.25H28.875C29.1071 26.25 29.3296 26.1578 29.4937 25.9937C29.6578 25.8296 29.75 25.6071 29.75 25.375C29.75 25.1429 29.6578 24.9204 29.4937 24.7563C29.3296 24.5922 29.1071 24.5 28.875 24.5H25.375Z" fill="#0BA11A"/>
<path d="M8.75 15.75C8.75 14.8217 9.11875 13.9315 9.77513 13.2751C10.4315 12.6187 11.3217 12.25 12.25 12.25H29.75C30.6783 12.25 31.5685 12.6187 32.2249 13.2751C32.8813 13.9315 33.25 14.8217 33.25 15.75V26.25C33.25 27.1783 32.8813 28.0685 32.2249 28.7249C31.5685 29.3813 30.6783 29.75 29.75 29.75H12.25C11.3217 29.75 10.4315 29.3813 9.77513 28.7249C9.11875 28.0685 8.75 27.1783 8.75 26.25V15.75ZM31.5 15.75C31.5 15.2859 31.3156 14.8408 30.9874 14.5126C30.6592 14.1844 30.2141 14 29.75 14H12.25C11.7859 14 11.3408 14.1844 11.0126 14.5126C10.6844 14.8408 10.5 15.2859 10.5 15.75V17.5H31.5V15.75ZM10.5 26.25C10.5 26.7141 10.6844 27.1592 11.0126 27.4874C11.3408 27.8156 11.7859 28 12.25 28H29.75C30.2141 28 30.6592 27.8156 30.9874 27.4874C31.3156 27.1592 31.5 26.7141 31.5 26.25V19.25H10.5V26.25Z" fill="#0BA11A"/>
</svg>
