<svg width="42" height="43" viewBox="0 0 42 43" fill="none" xmlns="http://www.w3.org/2000/svg">
<circle cx="21" cy="21" r="21" fill="#0BA11A"/>
<circle cx="21" cy="22" r="21" fill="#0BA11A"/>
<circle cx="21" cy="21" r="18" fill="white"/>
<path d="M23.6562 19.3438H28.6875V20.7812H23.6562V19.3438Z" fill="#0BA11A"/>
<path d="M23.6562 15.75H31.5625V17.1875H23.6562V15.75Z" fill="#0BA11A"/>
<path d="M23.6562 12.1562H31.5625V13.5938H23.6562V12.1562Z" fill="#0BA11A"/>
<path d="M17.9064 31.5625H15.0314C14.6505 31.5614 14.2855 31.4095 14.0162 31.1402C13.7468 30.8709 13.595 30.5059 13.5939 30.125V25.0937C13.213 25.0926 12.848 24.9408 12.5787 24.6715C12.3093 24.4021 12.1575 24.0371 12.1564 23.6562V19.3437C12.1511 19.0591 12.2033 18.7764 12.3098 18.5124C12.4163 18.2484 12.5749 18.0086 12.7762 17.8073C12.9775 17.606 13.2173 17.4474 13.4813 17.3409C13.7453 17.2344 14.028 17.1822 14.3126 17.1875H18.6251C18.9097 17.1822 19.1925 17.2344 19.4565 17.3409C19.7205 17.4474 19.9603 17.606 20.1615 17.8073C20.3628 18.0086 20.5215 18.2484 20.628 18.5124C20.7345 18.7764 20.7866 19.0591 20.7814 19.3437V23.6562C20.7802 24.0371 20.6284 24.4021 20.3591 24.6715C20.0897 24.9408 19.7248 25.0926 19.3439 25.0937V30.125C19.3427 30.5059 19.1909 30.8709 18.9216 31.1402C18.6522 31.4095 18.2873 31.5614 17.9064 31.5625ZM14.3126 18.625C14.2167 18.6192 14.1207 18.6339 14.0309 18.668C13.9411 18.702 13.8595 18.7548 13.7916 18.8227C13.7237 18.8906 13.6709 18.9722 13.6368 19.062C13.6027 19.1518 13.5881 19.2479 13.5939 19.3437V23.6562H15.0314V30.125H17.9064V23.6562H19.3439V19.3437C19.3496 19.2479 19.335 19.1518 19.3009 19.062C19.2668 18.9722 19.2141 18.8906 19.1462 18.8227C19.0782 18.7548 18.9967 18.702 18.9068 18.668C18.817 18.6339 18.721 18.6192 18.6251 18.625H14.3126Z" fill="#0BA11A"/>
<path d="M16.4688 16.4688C15.9001 16.4688 15.3443 16.3001 14.8715 15.9842C14.3987 15.6683 14.0302 15.2193 13.8126 14.694C13.595 14.1686 13.5381 13.5906 13.649 13.0329C13.7599 12.4752 14.0337 11.9629 14.4358 11.5608C14.8379 11.1587 15.3502 10.8849 15.9079 10.774C16.4656 10.6631 17.0436 10.72 17.569 10.9376C18.0943 11.1552 18.5433 11.5237 18.8592 11.9965C19.1751 12.4693 19.3438 13.0251 19.3438 13.5938C19.3415 14.3555 19.0378 15.0855 18.4992 15.6242C17.9605 16.1628 17.2305 16.4665 16.4688 16.4688ZM16.4688 12.1563C16.1844 12.1563 15.9065 12.2406 15.6701 12.3985C15.4337 12.5565 15.2495 12.781 15.1407 13.0436C15.0319 13.3063 15.0034 13.5953 15.0589 13.8742C15.1143 14.153 15.2512 14.4092 15.4523 14.6102C15.6533 14.8113 15.9095 14.9482 16.1883 15.0036C16.4672 15.0591 16.7562 15.0306 17.0189 14.9218C17.2815 14.813 17.506 14.6288 17.664 14.3924C17.8219 14.156 17.9063 13.8781 17.9063 13.5938C17.9051 13.2129 17.7533 12.8479 17.484 12.5785C17.2146 12.3092 16.8496 12.1574 16.4688 12.1563Z" fill="#0BA11A"/>
</svg>
